# xmcd
#
# Track frame offsets:
#	150
#	16882
#	28855
#	46622
#	61620
#	81671
#	92802
#	111076
#	130327
#	146985
#	164504
#	183047
#	199801
#	214081
#
# Disc length: 3085 seconds
#
# Revision: 2
# Processed by: cddbd v1.5.2PL0 Copyright (c) Steve Scherf et al.
# Submitted via: EasyCDDAExtractor 10.0.6.1
#
DISCID=c20c0b0e
DTITLE=Various Artist - CDX Volume 266 May 2001
DYEAR=2001
DGENRE=Country
TTITLE0=Jessica Andrews - Helplessly, Hopelessly
TTITLE1=Jim Lauderdale - Just To Get To You
TTITLE2=Chely Wright - Never Love You Enough
TTITLE3=Darryl Singletary - Now And Again
TTITLE4=Jeff Carson - Real Life
TTITLE5=Neil Cody - Right Down Through The Middle Of Us
TTITLE6=Joe Stampley - Somewhere Under The Rainbow
TTITLE7=Perfect Stranger - The Hits
TTITLE8=Pam Tillis - Thunder And Roses
TTITLE9=Nicel Creek - When You Come Back Down
TTITLE10=The Warren Brothers - Where Does It Hurt
TTITLE11=Scooter Lee - J'ai du Boogie
TTITLE12=Donna Littlepage - Manana
TTITLE13=Don Williams - I Belive In You (live)
EXTD=\nYEAR: 2001  ID3G:   2
EXTT0=
EXTT1=
EXTT2=
EXTT3=
EXTT4=
EXTT5=
EXTT6=
EXTT7=
EXTT8=
EXTT9=
EXTT10=
EXTT11=
EXTT12=
EXTT13=
PLAYORDER=
